<svg width="26" height="26" viewBox="0 0 26 26" fill="none" xmlns="http://www.w3.org/2000/svg">
<g clip-path="url(#clip0_82_458)">
<path d="M5.2 25.35C3.94333 25.35 2.87083 24.9058 1.9825 24.0175C1.09417 23.1292 0.65 22.0567 0.65 20.8C0.65 19.5433 1.09417 18.4708 1.9825 17.5825C2.87083 16.6942 3.94333 16.25 5.2 16.25C6.45667 16.25 7.52917 16.6942 8.4175 17.5825C9.30583 18.4708 9.75 19.5433 9.75 20.8C9.75 21.2767 9.67958 21.7371 9.53875 22.1813C9.39792 22.6254 9.18667 23.0425 8.905 23.4325V22.555C9.555 22.8367 10.2267 23.0479 10.92 23.1888C11.6133 23.3296 12.3067 23.4 13 23.4C15.9033 23.4 18.3625 22.3925 20.3775 20.3775C22.3925 18.3625 23.4 15.9033 23.4 13H26C26 14.7983 25.6588 16.4883 24.9762 18.07C24.2938 19.6517 23.3675 21.0275 22.1975 22.1975C21.0275 23.3675 19.6517 24.2938 18.07 24.9762C16.4883 25.6588 14.7983 26 13 26C12.025 26 11.0717 25.8971 10.14 25.6912C9.20833 25.4854 8.30917 25.1767 7.4425 24.765C7.09583 24.96 6.73292 25.1063 6.35375 25.2038C5.97458 25.3013 5.59 25.35 5.2 25.35ZM5.2 22.75C5.74167 22.75 6.20208 22.5604 6.58125 22.1813C6.96042 21.8021 7.15 21.3417 7.15 20.8C7.15 20.2583 6.96042 19.7979 6.58125 19.4188C6.20208 19.0396 5.74167 18.85 5.2 18.85C4.65833 18.85 4.19792 19.0396 3.81875 19.4188C3.43958 19.7979 3.25 20.2583 3.25 20.8C3.25 21.3417 3.43958 21.8021 3.81875 22.1813C4.19792 22.5604 4.65833 22.75 5.2 22.75ZM0 13C0 11.2017 0.34125 9.51167 1.02375 7.93C1.70625 6.34833 2.6325 4.9725 3.8025 3.8025C4.9725 2.6325 6.34833 1.70625 7.93 1.02375C9.51167 0.34125 11.2017 0 13 0C13.975 0 14.9283 0.102917 15.86 0.30875C16.7917 0.514583 17.6908 0.823333 18.5575 1.235C18.9042 1.04 19.2671 0.89375 19.6462 0.79625C20.0254 0.69875 20.41 0.65 20.8 0.65C22.0567 0.65 23.1292 1.09417 24.0175 1.9825C24.9058 2.87083 25.35 3.94333 25.35 5.2C25.35 6.45667 24.9058 7.52917 24.0175 8.4175C23.1292 9.30583 22.0567 9.75 20.8 9.75C19.5433 9.75 18.4708 9.30583 17.5825 8.4175C16.6942 7.52917 16.25 6.45667 16.25 5.2C16.25 4.72333 16.3204 4.26292 16.4613 3.81875C16.6021 3.37458 16.8133 2.9575 17.095 2.5675V3.445C16.445 3.16333 15.7733 2.95208 15.08 2.81125C14.3867 2.67042 13.6933 2.6 13 2.6C10.0967 2.6 7.6375 3.6075 5.6225 5.6225C3.6075 7.6375 2.6 10.0967 2.6 13H0ZM20.8 7.15C21.3417 7.15 21.8021 6.96042 22.1813 6.58125C22.5604 6.20208 22.75 5.74167 22.75 5.2C22.75 4.65833 22.5604 4.19792 22.1813 3.81875C21.8021 3.43958 21.3417 3.25 20.8 3.25C20.2583 3.25 19.7979 3.43958 19.4188 3.81875C19.0396 4.19792 18.85 4.65833 18.85 5.2C18.85 5.74167 19.0396 6.20208 19.4188 6.58125C19.7979 6.96042 20.2583 7.15 20.8 7.15Z" fill="#E3E3E3"/>
<path d="M9.57901 15.7368H14.3685V14.3684H9.57901V15.7368ZM9.57901 12.9999H16.4211V11.6315H9.57901V12.9999ZM9.57901 10.2631H16.4211V8.89468H9.57901V10.2631ZM8.21058 18.4736C7.83427 18.4736 7.51212 18.3396 7.24414 18.0717C6.97615 17.8037 6.84216 17.4815 6.84216 17.1052V7.52626C6.84216 7.14994 6.97615 6.82779 7.24414 6.55981C7.51212 6.29183 7.83427 6.15784 8.21058 6.15784H17.7895C18.1658 6.15784 18.488 6.29183 18.756 6.55981C19.024 6.82779 19.158 7.14994 19.158 7.52626V17.1052C19.158 17.4815 19.024 17.8037 18.756 18.0717C18.488 18.3396 18.1658 18.4736 17.7895 18.4736H8.21058ZM8.21058 17.1052H17.7895V7.52626H8.21058V17.1052Z" fill="#E3E3E3"/>
</g>
<defs>
<clipPath id="clip0_82_458">
<rect width="26" height="26" fill="white"/>
</clipPath>
</defs>
</svg>
