<svg width="22" height="21" viewBox="0 0 22 21" fill="none" xmlns="http://www.w3.org/2000/svg">
<path d="M9.83333 21V11.6958C8.58889 11.6958 7.39306 11.4576 6.24583 10.9812C5.09861 10.5049 4.0875 9.82917 3.2125 8.95417C2.3375 8.07917 1.66667 7.06806 1.2 5.92083C0.733333 4.77361 0.5 3.57778 0.5 2.33333V0H2.83333C4.05833 0 5.24444 0.238194 6.39167 0.714583C7.53889 1.19097 8.55 1.86667 9.425 2.74167C10.0278 3.34444 10.5285 4.00556 10.9271 4.725C11.3257 5.44444 11.6319 6.2125 11.8458 7.02917C11.9431 6.89306 12.05 6.76181 12.1667 6.63542C12.2833 6.50903 12.4097 6.37778 12.5458 6.24167C13.4208 5.36667 14.4319 4.69097 15.5792 4.21458C16.7264 3.73819 17.9222 3.5 19.1667 3.5H21.5V5.83333C21.5 7.07778 21.2618 8.27361 20.7854 9.42083C20.309 10.5681 19.6333 11.5792 18.7583 12.4542C17.8833 13.3292 16.8771 14 15.7396 14.4667C14.6021 14.9333 13.4111 15.1667 12.1667 15.1667V21H9.83333ZM9.83333 9.33333C9.83333 8.4 9.65347 7.51042 9.29375 6.66458C8.93403 5.81875 8.42361 5.06528 7.7625 4.40417C7.10139 3.74306 6.34792 3.23264 5.50208 2.87292C4.65625 2.51319 3.76667 2.33333 2.83333 2.33333C2.83333 3.26667 3.00833 4.16111 3.35833 5.01667C3.70833 5.87222 4.21389 6.63056 4.875 7.29167C5.53611 7.95278 6.29444 8.45833 7.15 8.80833C8.00556 9.15833 8.9 9.33333 9.83333 9.33333ZM12.1667 12.8333C13.1 12.8333 13.9896 12.6583 14.8354 12.3083C15.6812 11.9583 16.4347 11.4528 17.0958 10.7917C17.7569 10.1306 18.2674 9.37222 18.6271 8.51667C18.9868 7.66111 19.1667 6.76667 19.1667 5.83333C18.2333 5.83333 17.3389 6.01319 16.4833 6.37292C15.6278 6.73264 14.8694 7.24306 14.2083 7.90417C13.5472 8.56528 13.0417 9.31875 12.6917 10.1646C12.3417 11.0104 12.1667 11.9 12.1667 12.8333Z" fill="#E3E3E3"/>
</svg>
